<svg xmlns="http://www.w3.org/2000/svg" width="299.34" height="19.64" viewBox="0 0 299.34 19.64"><g transform="translate(-80.76 -187.3)"><path d="M11.88,9.04h1.36a4.878,4.878,0,0,0-.67-1.98,5.186,5.186,0,0,0-1.32-1.45,5.762,5.762,0,0,0-1.76-.89,6.7,6.7,0,0,0-1.99-.3,6.74,6.74,0,0,0-2.95.61A6.069,6.069,0,0,0,2.44,6.67,7.039,7.039,0,0,0,1.18,9.04a9.677,9.677,0,0,0,0,5.64,6.929,6.929,0,0,0,1.26,2.36,6.124,6.124,0,0,0,2.11,1.63,6.74,6.74,0,0,0,2.95.61,6.279,6.279,0,0,0,2.29-.4,5.268,5.268,0,0,0,1.79-1.14,5.845,5.845,0,0,0,1.24-1.8,7.706,7.706,0,0,0,.62-2.38H12.08a6.044,6.044,0,0,1-.46,1.79,5.032,5.032,0,0,1-.94,1.45,4.263,4.263,0,0,1-1.38.98,4.34,4.34,0,0,1-1.8.36,5.15,5.15,0,0,1-2.44-.54,4.834,4.834,0,0,1-1.67-1.43,6.148,6.148,0,0,1-.96-2.02,8.65,8.65,0,0,1,0-4.59,6.161,6.161,0,0,1,.96-2.01A4.834,4.834,0,0,1,5.06,6.12,5.15,5.15,0,0,1,7.5,5.58a4.8,4.8,0,0,1,1.49.23,4.456,4.456,0,0,1,1.3.67,4.018,4.018,0,0,1,1,1.09A4.565,4.565,0,0,1,11.88,9.04Zm4.24-4.32V19h9.96V17.84h-8.6V12.2h7.96V11.04H17.48V5.88h8.5V4.72ZM29.94,11.5V5.88h5.08a3.157,3.157,0,0,1,2.32.76,2.811,2.811,0,0,1,.76,2.08,2.625,2.625,0,0,1-.25,1.17,2.693,2.693,0,0,1-.67.87,2.939,2.939,0,0,1-.98.55,3.647,3.647,0,0,1-1.18.19ZM28.58,4.72V19h1.36V12.66H35.1a2.535,2.535,0,0,1,1.51.32,2.36,2.36,0,0,1,.84.95,4.133,4.133,0,0,1,.38,1.34q.09.75.13,1.51.02.22.04.52t.05.61a4.333,4.333,0,0,0,.1.6,1.748,1.748,0,0,0,.19.49h1.5a1.911,1.911,0,0,1-.35-.73,6.485,6.485,0,0,1-.19-1q-.06-.53-.08-1.05t-.04-.88a7.1,7.1,0,0,0-.17-1.19,2.838,2.838,0,0,0-.42-.97,2.331,2.331,0,0,0-.75-.69,3.169,3.169,0,0,0-1.16-.37v-.04a3.192,3.192,0,0,0,2.08-1.28,4.011,4.011,0,0,0,.7-2.36,3.736,3.736,0,0,0-.35-1.67,3.226,3.226,0,0,0-.94-1.16,4.033,4.033,0,0,0-1.38-.67,6.2,6.2,0,0,0-1.67-.22Zm12.54,0V5.88h4.96V19h1.36V5.88h4.98V4.72Zm13.34,0V19h1.36V4.72Zm4.94,0V19h1.36V12.2H67.6V11.04H60.76V5.88h7.7V4.72Zm11.44,0V19H72.2V4.72ZM86.22,9.04h1.36a4.878,4.878,0,0,0-.67-1.98,5.187,5.187,0,0,0-1.32-1.45,5.762,5.762,0,0,0-1.76-.89,7.148,7.148,0,0,0-4.94.31,6.069,6.069,0,0,0-2.11,1.64,7.039,7.039,0,0,0-1.26,2.37,9.677,9.677,0,0,0,0,5.64,6.929,6.929,0,0,0,1.26,2.36,6.124,6.124,0,0,0,2.11,1.63,6.74,6.74,0,0,0,2.95.61,6.279,6.279,0,0,0,2.29-.4,5.268,5.268,0,0,0,1.79-1.14,5.845,5.845,0,0,0,1.24-1.8,7.706,7.706,0,0,0,.62-2.38H86.42a6.044,6.044,0,0,1-.46,1.79,5.032,5.032,0,0,1-.94,1.45,4.263,4.263,0,0,1-1.38.98,4.34,4.34,0,0,1-1.8.36,5.15,5.15,0,0,1-2.44-.54,4.834,4.834,0,0,1-1.67-1.43,6.148,6.148,0,0,1-.96-2.02,8.65,8.65,0,0,1,0-4.59,6.161,6.161,0,0,1,.96-2.01A4.834,4.834,0,0,1,79.4,6.12a5.15,5.15,0,0,1,2.44-.54,4.8,4.8,0,0,1,1.49.23,4.456,4.456,0,0,1,1.3.67,4.018,4.018,0,0,1,1,1.09A4.565,4.565,0,0,1,86.22,9.04Zm6.26,4.36,2.86-7.32L98.1,13.4Zm2.16-8.68L88.9,19h1.44l1.72-4.44h6.5L100.3,19h1.46L96.16,4.72Zm6.14,0V5.88h4.96V19h1.36V5.88h4.98V4.72Zm13.24,0V19h9.96V17.84h-8.6V12.2h7.96V11.04h-7.96V5.88h8.5V4.72Z" transform="translate(80 185)"/><path d="M7.2,13.4l2.86-7.32,2.76,7.32ZM9.36,4.72,3.62,19H5.06l1.72-4.44h6.5L15.02,19h1.46L10.88,4.72ZM28.82,9.04h1.36a4.878,4.878,0,0,0-.67-1.98,5.186,5.186,0,0,0-1.32-1.45,5.762,5.762,0,0,0-1.76-.89,7.148,7.148,0,0,0-4.94.31,6.069,6.069,0,0,0-2.11,1.64,7.039,7.039,0,0,0-1.26,2.37,9.677,9.677,0,0,0,0,5.64,6.929,6.929,0,0,0,1.26,2.36,6.124,6.124,0,0,0,2.11,1.63,6.74,6.74,0,0,0,2.95.61,6.279,6.279,0,0,0,2.29-.4,5.268,5.268,0,0,0,1.79-1.14,5.845,5.845,0,0,0,1.24-1.8,7.706,7.706,0,0,0,.62-2.38H29.02a6.044,6.044,0,0,1-.46,1.79,5.032,5.032,0,0,1-.94,1.45,4.263,4.263,0,0,1-1.38.98,4.34,4.34,0,0,1-1.8.36A5.15,5.15,0,0,1,22,17.6a4.834,4.834,0,0,1-1.67-1.43,6.148,6.148,0,0,1-.96-2.02,8.65,8.65,0,0,1,0-4.59,6.161,6.161,0,0,1,.96-2.01A4.834,4.834,0,0,1,22,6.12a5.15,5.15,0,0,1,2.44-.54,4.8,4.8,0,0,1,1.49.23,4.456,4.456,0,0,1,1.3.67,4.018,4.018,0,0,1,1,1.09A4.565,4.565,0,0,1,28.82,9.04Zm4.24-4.32V19h1.36V12.08H42.9V19h1.36V4.72H42.9v6.2H34.42V4.72Zm14.78,0V19H49.2V4.72Zm4.94,0V19h9.96V17.84h-8.6V12.2H62.1V11.04H54.14V5.88h8.5V4.72Zm10.9,0L68.96,19h1.58l5.3-14.28H74.4L69.8,17.5h-.04L65.12,4.72Zm14.02,0V19h9.96V17.84h-8.6V12.2h7.96V11.04H79.06V5.88h8.5V4.72Zm14.42,0,4.74,12.52,4.92-12.52h2V19h-1.36V6.66h-.04L97.5,19H96.22L91.52,6.66h-.04V19H90.12V4.72Zm15.06,0V19h9.96V17.84h-8.6V12.2h7.96V11.04h-7.96V5.88h8.5V4.72Zm12.44,0V19h1.36V6.92h.04L129.34,19h1.52V4.72H129.5V16.8h-.04L121.14,4.72Zm13.18,0V5.88h4.96V19h1.36V5.88h4.98V4.72Z" transform="translate(236 185)"/><path d="M3.2.2A3.587,3.587,0,0,0,6.08-1.12,7.625,7.625,0,0,0,7.8-5.8,2.373,2.373,0,0,0,5.32-8.32,3.7,3.7,0,0,0,2.48-7.04,6.582,6.582,0,0,0,.8-2.54,2.477,2.477,0,0,0,3.2.2ZM2.92-.88a.9.9,0,0,1-.84-.94A6.939,6.939,0,0,1,3.14-4.94C4.12-6.58,4.88-7.28,5.7-7.28a.849.849,0,0,1,.86.9A9.863,9.863,0,0,1,5.2-2.74C4.42-1.44,3.7-.88,2.92-.88Zm10.22-7c.6-2.14,1.24-5.04,2.8-5.04a.69.69,0,0,1,.72.58.954.954,0,0,0,1.08.92.94.94,0,0,0,.92-.96c0-.6-.64-1.32-2.12-1.32a4.45,4.45,0,0,0-3.04,1.4,11.549,11.549,0,0,0-2.28,4.42H9.54c-.16,0-.2.08-.24.2l-.1.48c-.02.12.02.2.14.2h1.72L9.26-.24C8.3,3.42,7.34,5.1,6.42,5.1a.363.363,0,0,1-.4-.32,1.023,1.023,0,0,0-1-1.04.915.915,0,0,0-.92.96c0,.72.64,1.24,1.68,1.24,2.34,0,3.94-2.6,5.04-5.62C11.66-2,12.54-5.44,12.98-7h2c.16,0,.2-.04.22-.16l.1-.52c.04-.12,0-.2-.12-.2Z" transform="translate(215 201)"/></g></svg>